<svg width="23" height="22" viewBox="0 0 23 22" fill="none" xmlns="http://www.w3.org/2000/svg">
<path d="M10.1274 5.27194L6.83693 1.51088C6.45759 1.07746 5.76215 1.07939 5.32154 1.51666L2.61563 4.20093C1.81027 4.99937 1.57975 6.185 2.04565 7.13562C4.82901 12.8422 9.47674 17.4509 15.2358 20.2151C16.1948 20.6764 17.3911 20.4482 18.1965 19.6497L20.9277 16.9404C21.3703 16.5022 21.3712 15.8097 20.9296 15.434L17.1169 12.1931C16.7181 11.854 16.0985 11.8984 15.6987 12.2952L14.372 13.6108C14.3041 13.6813 14.2147 13.7278 14.1175 13.7431C14.0204 13.7584 13.9208 13.7417 13.8342 13.6956C11.6656 12.459 9.86672 10.6754 8.62076 8.5264C8.5741 8.44044 8.55721 8.34169 8.57267 8.24531C8.58813 8.14893 8.63509 8.06023 8.70636 7.99282L10.0292 6.68198C10.4299 6.28324 10.4737 5.66683 10.1274 5.27098V5.27194Z" stroke="#FDB505" stroke-width="2.01015" stroke-linecap="round" stroke-linejoin="round"/>
</svg>
