<svg width="30" height="29" viewBox="0 0 30 29" fill="none" xmlns="http://www.w3.org/2000/svg">
<path d="M13.1027 6.8L8.58268 1.58249C8.0616 0.981237 7.10628 0.983909 6.50102 1.5905L2.78396 5.31424C1.67766 6.42188 1.361 8.06663 2.001 9.38538C5.82444 17.3018 12.2089 23.6952 20.12 27.5298C21.4374 28.1698 23.0808 27.8531 24.1871 26.7455L27.9389 22.987C28.5469 22.3791 28.5482 21.4184 27.9416 20.8973L22.704 16.4013C22.1562 15.931 21.3051 15.9924 20.756 16.5429L18.9335 18.368C18.8402 18.4658 18.7174 18.5303 18.5839 18.5515C18.4505 18.5728 18.3137 18.5496 18.1947 18.4856C15.2157 16.7702 12.7447 14.2959 11.0331 11.3147C10.969 11.1955 10.9458 11.0585 10.967 10.9248C10.9883 10.7911 11.0528 10.668 11.1507 10.5745L12.9678 8.75607C13.5183 8.20292 13.5784 7.34781 13.1027 6.79866V6.8Z" stroke="white" stroke-width="2.00417" stroke-linecap="round" stroke-linejoin="round"/>
</svg>
